<?xml version="1.0" standalone="no"?>
<!DOCTYPE svg PUBLIC "-//W3C//DTD SVG 20010904//EN"
 "http://www.w3.org/TR/2001/REC-SVG-20010904/DTD/svg10.dtd">
<svg version="1.0" xmlns="http://www.w3.org/2000/svg"
 width="500.000000pt" height="500.000000pt" viewBox="0 0 500.000000 500.000000"
 preserveAspectRatio="xMidYMid meet">
<metadata>
Created by potrace 1.14, written by Peter Selinger 2001-2017
</metadata>
<g transform="translate(0.000000,500.000000) scale(0.100000,-0.100000)"
fill="#000000" stroke="none">
<path d="M944 3931 c-2 -2 -4 -573 -4 -1268 l0 -1263 1560 0 1560 0 0 433 c1
1385 -1 2091 -6 2096 -6 6 -3103 8 -3110 2z m289 -100 c4 -1 7 -45 7 -99 l0
-98 -100 0 -100 0 0 97 c0 62 4 99 11 101 9 3 154 2 182 -1z m305 -96 l-3
-100 -97 -1 -98 0 0 97 c0 56 4 99 10 101 5 2 51 3 100 3 l91 0 -3 -100z m297
93 c5 -5 8 -84 6 -164 l-1 -30 -97 1 -98 1 -3 99 -3 100 95 -1 c53 0 98 -3
101 -6z m300 0 c6 -3 9 -48 7 -100 l-3 -95 -97 1 -97 1 -3 94 c-2 54 1 97 7
100 12 8 174 7 186 -1z m306 -25 c1 -42 1 -94 0 -136 l-1 -33 -97 1 -98 0 -2
100 -3 100 100 0 100 0 1 -32z m317 -68 l3 -100 -100 0 c-84 -1 -101 2 -102
15 -2 52 1 172 5 178 2 4 46 7 98 7 l93 0 3 -100z m290 96 c10 -1 12 -25 10
-98 l-3 -98 -97 0 -97 -1 -3 66 c-2 36 -2 81 0 100 l3 35 87 -1 c48 -1 93 -2
100 -3z m304 0 c3 -1 5 -45 5 -98 l-2 -98 -94 0 c-110 -1 -107 -4 -103 117 l3
83 92 -1 c51 -1 95 -2 99 -3z m308 -96 l0 -100 -100 -1 -100 0 0 100 0 101
100 0 100 0 0 -100z m292 96 c4 -1 8 -29 8 -63 0 -35 1 -70 1 -78 1 -54 -2
-55 -107 -55 -76 0 -98 3 -96 13 1 7 2 23 2 35 0 103 2 142 10 147 6 4 152 5
182 1z m-2712 -2231 l0 -100 -100 0 -100 0 0 100 0 100 100 0 100 0 0 -100z
m300 0 l0 -100 -100 0 -100 0 0 100 0 100 100 0 100 0 0 -100z m301 90 c0 -5
0 -32 0 -60 0 -27 0 -68 0 -90 l-1 -40 -99 0 -98 0 -1 100 -1 100 99 0 c60 0
100 -4 101 -10z m301 -42 c1 -29 2 -74 0 -100 l-3 -48 -99 0 -98 0 -1 100 -1
100 99 0 99 0 4 -52z m299 32 c0 -11 0 -40 0 -65 0 -25 0 -61 0 -80 l-1 -35
-98 0 -99 0 -1 100 -1 100 100 0 c92 0 99 -1 100 -20z m317 -80 l0 -100 -99 0
-99 0 -1 28 c-1 29 -1 113 0 150 1 21 4 22 101 22 l99 0 -1 -100z m302 0 l0
-100 -100 0 -100 0 0 100 0 100 100 0 100 0 0 -100z m299 0 l-1 -100 -99 0
-99 0 -1 48 c-1 26 0 52 1 57 1 5 2 29 2 52 l0 43 99 0 99 0 -1 -100z m301 0
l0 -100 -100 0 -100 0 0 100 0 100 100 0 100 0 0 -100z m302 81 c-2 -8 -3 -52
-3 -98 l0 -83 -99 1 -98 1 -4 67 c-2 36 -2 81 0 99 l3 33 102 -3 c83 -2 101
-6 99 -17z"/>
<path d="M1147 1261 c-2 -3 -3 -48 -3 -100 1 -66 5 -96 14 -98 6 -3 13 4 14
14 0 10 2 24 2 32 1 10 16 15 51 17 37 2 54 8 68 25 20 25 17 73 -6 96 -13 14
-135 26 -140 14z m124 -43 c10 -15 1 -50 -15 -60 -16 -11 -76 -10 -77 2 -1 6
-1 21 -1 35 0 14 0 30 1 36 1 16 81 5 92 -13z"/>
<path d="M1390 1163 c0 -79 3 -104 13 -101 6 3 13 23 15 46 3 43 4 44 62 44
58 0 58 0 55 -45 -2 -34 1 -43 14 -44 14 -1 16 12 16 100 0 84 -3 102 -15 102
-10 0 -15 -11 -16 -32 -1 -18 -2 -37 -3 -43 0 -5 -26 -10 -56 -10 l-55 0 0 43
c0 32 -4 44 -15 44 -12 0 -15 -19 -15 -104z"/>
<path d="M1702 1250 c-56 -35 -68 -99 -26 -149 30 -36 81 -49 125 -31 81 34
85 146 6 183 -45 22 -65 21 -105 -3z m114 -37 c14 -19 18 -71 6 -89 -11 -16
-48 -34 -72 -34 -29 0 -70 44 -70 75 0 15 11 37 26 52 21 21 32 24 61 20 19
-4 41 -14 49 -24z"/>
<path d="M1920 1253 c0 -6 15 -13 33 -15 l32 -3 1 -83 c1 -45 4 -85 7 -88 17
-17 26 15 24 89 l-1 82 37 3 c34 3 53 20 25 23 -66 7 -158 2 -158 -8z"/>
<path d="M2194 1254 c-117 -57 -24 -234 97 -184 81 34 83 147 4 185 -41 19
-62 19 -101 -1z m82 -20 c49 -13 59 -97 16 -130 -44 -34 -122 5 -122 61 0 30
41 75 67 75 10 0 27 -3 39 -6z"/>
<path d="M2471 1248 c-56 -38 -63 -114 -14 -160 28 -26 109 -32 137 -9 21 18
22 88 1 88 -9 0 -15 -10 -15 -23 0 -41 -11 -54 -44 -54 -70 1 -107 75 -61 124
26 28 48 32 91 16 31 -12 52 1 31 18 -7 6 -31 14 -52 17 -32 5 -47 2 -74 -17z"/>
<path d="M2705 1260 c-1 -3 -2 -47 -1 -99 1 -66 5 -96 14 -99 7 -2 13 5 13 17
1 12 2 26 3 33 2 25 49 15 82 -19 38 -38 65 -45 40 -10 -27 37 -29 46 -12 62
9 9 16 19 17 23 0 4 2 16 4 28 5 24 -27 63 -53 65 -54 5 -104 4 -107 -1z m102
-26 c27 -8 36 -48 13 -69 -9 -8 -32 -15 -52 -15 -35 0 -35 0 -35 45 0 42 2 45
26 45 14 0 36 -3 48 -6z"/>
<path d="M3012 1258 c-7 -7 -12 -15 -12 -19 0 -4 -16 -42 -35 -83 -19 -42 -35
-81 -35 -87 0 -18 24 -4 35 19 10 22 14 24 60 24 54 0 62 -3 72 -25 6 -13 18
-24 27 -24 8 0 14 3 12 6 -13 20 -76 164 -76 171 0 17 -36 30 -48 18z m47 -89
c10 -29 10 -29 -29 -29 -37 0 -39 1 -31 23 5 12 12 30 15 41 8 24 30 7 45 -35z"/>
<path d="M3209 1251 c-1 -23 -2 -131 0 -164 1 -37 26 -30 26 6 -1 15 2 27 5
28 3 0 24 2 48 4 51 3 82 28 82 65 0 50 -28 72 -98 75 -51 2 -62 -1 -63 -14z
m115 -27 c19 -19 20 -41 4 -57 -15 -14 -88 -23 -89 -10 -7 81 -6 83 33 83 20
0 44 -7 52 -16z"/>
<path d="M3459 1267 c-1 -1 -3 -46 -4 -99 -2 -74 1 -98 11 -102 18 -7 22 2 19
47 -3 40 -7 38 73 40 34 0 37 -2 38 -29 1 -16 2 -37 3 -46 1 -11 6 -15 16 -12
21 8 19 190 -2 198 -13 5 -14 3 -17 -49 -1 -30 -2 -30 -56 -30 l-55 0 1 37 c0
22 -5 39 -13 42 -7 3 -14 4 -14 3z"/>
<path d="M3700 1260 c0 -4 8 -18 18 -31 36 -47 65 -108 60 -127 -3 -11 -2 -25
2 -32 13 -20 30 -1 30 33 0 18 10 48 21 67 12 19 30 50 41 68 16 26 17 32 5
32 -9 0 -31 -24 -49 -54 l-34 -54 -32 52 c-17 29 -38 53 -47 53 -8 0 -15 -3
-15 -7z"/>
</g>
</svg>
